<mxfile host="www.draw.io" modified="2020-01-05T09:08:35.368Z" agent="Mozilla/5.0 (Macintosh; Intel Mac OS X 10_13_6) AppleWebKit/537.36 (KHTML, like Gecko) Chrome/79.0.3945.88 Safari/537.36" etag="Oc-ynFIFfsBO0k-lAOtX" version="12.4.8" type="github">
  <diagram id="q0Qemogr2p76Ejr7fHuv" name="Page-1">
    <mxGraphModel dx="1426" dy="668" grid="1" gridSize="10" guides="1" tooltips="1" connect="1" arrows="1" fold="1" page="1" pageScale="1" pageWidth="827" pageHeight="1169" math="0" shadow="0">
      <root>
        <mxCell id="0"/>
        <mxCell id="1" parent="0"/>
        <mxCell id="BkMy49ze9qn0hu9Yu05o-1" value="" style="rounded=1;whiteSpace=wrap;html=1;fontSize=14;" parent="1" vertex="1">
          <mxGeometry x="190" y="410" width="430" height="100" as="geometry"/>
        </mxCell>
        <mxCell id="BkMy49ze9qn0hu9Yu05o-2" value="区块链层&lt;br style=&quot;font-size: 14px;&quot;&gt;（微趣）" style="text;html=1;strokeColor=none;fillColor=#ffe6cc;align=center;verticalAlign=middle;whiteSpace=wrap;rounded=0;fontSize=14;" parent="1" vertex="1">
          <mxGeometry x="80" y="440" width="80" height="30" as="geometry"/>
        </mxCell>
        <mxCell id="BkMy49ze9qn0hu9Yu05o-8" value="基础应用层&lt;br style=&quot;font-size: 14px;&quot;&gt;（有传）" style="text;html=1;strokeColor=#d79b00;fillColor=#ffe6cc;align=center;verticalAlign=middle;whiteSpace=wrap;rounded=0;fontSize=14;" parent="1" vertex="1">
          <mxGeometry x="80" y="330" width="80" height="30" as="geometry"/>
        </mxCell>
        <mxCell id="BkMy49ze9qn0hu9Yu05o-14" value="行业智能合约层" style="text;html=1;strokeColor=#d79b00;fillColor=#ffe6cc;align=center;verticalAlign=middle;whiteSpace=wrap;rounded=0;fontSize=14;" parent="1" vertex="1">
          <mxGeometry x="80" y="223.5" width="80" height="31" as="geometry"/>
        </mxCell>
        <mxCell id="cECoTZmhDWO5OO1rk6H5-3" value="" style="rounded=1;whiteSpace=wrap;html=1;fontSize=14;" parent="1" vertex="1">
          <mxGeometry x="190" y="80" width="430" height="100" as="geometry"/>
        </mxCell>
        <mxCell id="cECoTZmhDWO5OO1rk6H5-4" value="客户端" style="text;html=1;strokeColor=#d79b00;fillColor=#ffe6cc;align=center;verticalAlign=middle;whiteSpace=wrap;rounded=0;fontSize=14;" parent="1" vertex="1">
          <mxGeometry x="80" y="115" width="80" height="30" as="geometry"/>
        </mxCell>
        <mxCell id="cECoTZmhDWO5OO1rk6H5-5" value="智能合约管理" style="rounded=1;whiteSpace=wrap;html=1;fontSize=14;fillColor=#e1d5e7;strokeColor=#9673a6;" parent="1" vertex="1">
          <mxGeometry x="480" y="423" width="90" height="28" as="geometry"/>
        </mxCell>
        <mxCell id="cECoTZmhDWO5OO1rk6H5-6" value="数据管理" style="rounded=1;whiteSpace=wrap;html=1;fontSize=14;fillColor=#e1d5e7;strokeColor=#9673a6;" parent="1" vertex="1">
          <mxGeometry x="359" y="423" width="90" height="28" as="geometry"/>
        </mxCell>
        <mxCell id="cECoTZmhDWO5OO1rk6H5-7" value="加密算法管理" style="rounded=1;whiteSpace=wrap;html=1;fontSize=14;fillColor=#e1d5e7;strokeColor=#9673a6;" parent="1" vertex="1">
          <mxGeometry x="237" y="423" width="90" height="28" as="geometry"/>
        </mxCell>
        <mxCell id="cECoTZmhDWO5OO1rk6H5-8" value="接口管理" style="rounded=1;whiteSpace=wrap;html=1;fontSize=14;fillColor=#e1d5e7;strokeColor=#9673a6;" parent="1" vertex="1">
          <mxGeometry x="237" y="470" width="90" height="28" as="geometry"/>
        </mxCell>
        <mxCell id="cECoTZmhDWO5OO1rk6H5-9" value="节点管理" style="rounded=1;whiteSpace=wrap;html=1;fontSize=14;fillColor=#e1d5e7;strokeColor=#9673a6;" parent="1" vertex="1">
          <mxGeometry x="359" y="470" width="90" height="28" as="geometry"/>
        </mxCell>
        <mxCell id="cECoTZmhDWO5OO1rk6H5-10" value="共识机制" style="rounded=1;whiteSpace=wrap;html=1;fontSize=14;fillColor=#e1d5e7;strokeColor=#9673a6;" parent="1" vertex="1">
          <mxGeometry x="480" y="470" width="90" height="28" as="geometry"/>
        </mxCell>
        <mxCell id="cECoTZmhDWO5OO1rk6H5-11" value="" style="rounded=1;whiteSpace=wrap;html=1;fontSize=14;" parent="1" vertex="1">
          <mxGeometry x="190" y="300" width="430" height="100" as="geometry"/>
        </mxCell>
        <mxCell id="cECoTZmhDWO5OO1rk6H5-12" value="名片创建" style="rounded=1;whiteSpace=wrap;html=1;fontSize=14;fillColor=#D5E8D4;" parent="1" vertex="1">
          <mxGeometry x="480" y="312" width="90" height="28" as="geometry"/>
        </mxCell>
        <mxCell id="cECoTZmhDWO5OO1rk6H5-13" value="名片交换流程" style="rounded=1;whiteSpace=wrap;html=1;fontSize=14;fillColor=#d5e8d4;strokeColor=#82b366;" parent="1" vertex="1">
          <mxGeometry x="237" y="312" width="90" height="28" as="geometry"/>
        </mxCell>
        <mxCell id="cECoTZmhDWO5OO1rk6H5-14" value="名片数据标准" style="rounded=1;whiteSpace=wrap;html=1;fontSize=14;fillColor=#d5e8d4;strokeColor=#82b366;" parent="1" vertex="1">
          <mxGeometry x="480" y="360" width="90" height="28" as="geometry"/>
        </mxCell>
        <mxCell id="cECoTZmhDWO5OO1rk6H5-16" value="数据互通标准" style="rounded=1;whiteSpace=wrap;html=1;fontSize=14;fillColor=#d5e8d4;strokeColor=#82b366;" parent="1" vertex="1">
          <mxGeometry x="237" y="360" width="90" height="28" as="geometry"/>
        </mxCell>
        <mxCell id="cECoTZmhDWO5OO1rk6H5-18" value="" style="rounded=1;whiteSpace=wrap;html=1;fontSize=14;" parent="1" vertex="1">
          <mxGeometry x="190" y="190" width="430" height="100" as="geometry"/>
        </mxCell>
        <mxCell id="cECoTZmhDWO5OO1rk6H5-19" value="其他行业智能合约" style="rounded=1;whiteSpace=wrap;html=1;fontSize=14;fillColor=#f8cecc;strokeColor=#b85450;" parent="1" vertex="1">
          <mxGeometry x="480" y="203" width="90" height="77" as="geometry"/>
        </mxCell>
        <mxCell id="cECoTZmhDWO5OO1rk6H5-21" value="零售行业智能合约" style="rounded=1;whiteSpace=wrap;html=1;fontSize=14;fillColor=#f8cecc;strokeColor=#b85450;" parent="1" vertex="1">
          <mxGeometry x="237" y="203" width="90" height="77" as="geometry"/>
        </mxCell>
        <mxCell id="cECoTZmhDWO5OO1rk6H5-23" value="保险行业智能合约" style="rounded=1;whiteSpace=wrap;html=1;fontSize=14;fillColor=#f8cecc;strokeColor=#b85450;" parent="1" vertex="1">
          <mxGeometry x="359" y="200" width="90" height="78" as="geometry"/>
        </mxCell>
        <mxCell id="cECoTZmhDWO5OO1rk6H5-25" value="用户管理" style="rounded=1;whiteSpace=wrap;html=1;fontSize=14;fillColor=#fff2cc;strokeColor=#d6b656;" parent="1" vertex="1">
          <mxGeometry x="230" y="100.75" width="100" height="58.5" as="geometry"/>
        </mxCell>
        <mxCell id="cECoTZmhDWO5OO1rk6H5-26" value="搜索" style="rounded=1;whiteSpace=wrap;html=1;fontSize=14;fillColor=#fff2cc;strokeColor=#d6b656;" parent="1" vertex="1">
          <mxGeometry x="358" y="100.75" width="92" height="58.5" as="geometry"/>
        </mxCell>
        <mxCell id="cECoTZmhDWO5OO1rk6H5-27" value="API接口" style="rounded=1;whiteSpace=wrap;html=1;fontSize=14;fillColor=#fff2cc;strokeColor=#d6b656;" parent="1" vertex="1">
          <mxGeometry x="480" y="100.75" width="90" height="58.5" as="geometry"/>
        </mxCell>
      </root>
    </mxGraphModel>
  </diagram>
</mxfile>
